<svg width="17" height="17" viewBox="0 0 21 23" fill="none" xmlns="http://www.w3.org/2000/svg">
    <path d="M11.1399 10.9061L3.44669 1.0764C3.35629 0.958873 3.21466 0.892578 3.067 0.892578H0.737653C0.535755 0.892578 0.42426 1.12461 0.547809 1.28131L8.54535 11.4997L0.547809 21.7181C0.519986 21.7537 0.502722 21.7963 0.497991 21.8412C0.49326 21.8861 0.501254 21.9314 0.521058 21.9719C0.540861 22.0125 0.571676 22.0466 0.609978 22.0705C0.648281 22.0944 0.692525 22.107 0.737653 22.1069H3.067C3.21466 22.1069 3.35629 22.0376 3.44669 21.923L11.1399 12.0964C11.4141 11.7438 11.4141 11.2556 11.1399 10.9061ZM20.3006 10.9061L12.6074 1.0764C12.517 0.958873 12.3754 0.892578 12.2277 0.892578H9.89837C9.69647 0.892578 9.58497 1.12461 9.70852 1.28131L17.7061 11.4997L9.70852 21.7181C9.6807 21.7537 9.66344 21.7963 9.65871 21.8412C9.65397 21.8861 9.66197 21.9314 9.68177 21.9719C9.70158 22.0125 9.73239 22.0466 9.77069 22.0705C9.80899 22.0944 9.85324 22.107 9.89837 22.1069H12.2277C12.3754 22.1069 12.517 22.0376 12.6074 21.923L20.3006 12.0964C20.5748 11.7438 20.5748 11.2556 20.3006 10.9061Z"
          fill="#455560"/>
</svg>
